<svg width="519" height="73" viewBox="0 0 519 73" fill="none" xmlns="http://www.w3.org/2000/svg">
<path d="M52.312 26.304C52.312 30.208 51.416 33.792 49.624 37.056C47.832 40.256 45.08 42.848 41.368 44.832C37.656 46.816 33.048 47.808 27.544 47.808H17.368V72H0.952V4.608H27.544C32.92 4.608 37.464 5.536 41.176 7.392C44.888 9.248 47.672 11.808 49.528 15.072C51.384 18.336 52.312 22.08 52.312 26.304ZM26.296 34.752C29.432 34.752 31.768 34.016 33.304 32.544C34.84 31.072 35.608 28.992 35.608 26.304C35.608 23.616 34.84 21.536 33.304 20.064C31.768 18.592 29.432 17.856 26.296 17.856H17.368V34.752H26.296ZM57.5943 45.12C57.5943 39.616 58.6183 34.784 60.6663 30.624C62.7783 26.464 65.6263 23.264 69.2103 21.024C72.7943 18.784 76.7943 17.664 81.2103 17.664C84.9863 17.664 88.2823 18.432 91.0983 19.968C93.9783 21.504 96.1863 23.52 97.7223 26.016V18.432H114.138V72H97.7223V64.416C96.1223 66.912 93.8823 68.928 91.0023 70.464C88.1863 72 84.8903 72.768 81.1143 72.768C76.7623 72.768 72.7943 71.648 69.2103 69.408C65.6263 67.104 62.7783 63.872 60.6663 59.712C58.6183 55.488 57.5943 50.624 57.5943 45.12ZM97.7223 45.216C97.7223 41.12 96.5703 37.888 94.2663 35.52C92.0263 33.152 89.2743 31.968 86.0103 31.968C82.7463 31.968 79.9623 33.152 77.6583 35.52C75.4183 37.824 74.2983 41.024 74.2983 45.12C74.2983 49.216 75.4183 52.48 77.6583 54.912C79.9623 57.28 82.7463 58.464 86.0103 58.464C89.2743 58.464 92.0263 57.28 94.2663 54.912C96.5703 52.544 97.7223 49.312 97.7223 45.216ZM142.431 26.016C143.967 23.52 146.175 21.504 149.055 19.968C151.935 18.432 155.231 17.664 158.943 17.664C163.359 17.664 167.359 18.784 170.943 21.024C174.527 23.264 177.343 26.464 179.391 30.624C181.503 34.784 182.559 39.616 182.559 45.12C182.559 50.624 181.503 55.488 179.391 59.712C177.343 63.872 174.527 67.104 170.943 69.408C167.359 71.648 163.359 72.768 158.943 72.768C155.167 72.768 151.871 72.032 149.055 70.56C146.239 69.024 144.031 67.008 142.431 64.512V72H126.015V0.959999H142.431V26.016ZM165.855 45.12C165.855 41.024 164.703 37.824 162.399 35.52C160.159 33.152 157.375 31.968 154.047 31.968C150.783 31.968 147.999 33.152 145.695 35.52C143.455 37.888 142.335 41.12 142.335 45.216C142.335 49.312 143.455 52.544 145.695 54.912C147.999 57.28 150.783 58.464 154.047 58.464C157.311 58.464 160.095 57.28 162.399 54.912C164.703 52.48 165.855 49.216 165.855 45.12ZM207.587 0.959999V72H191.171V0.959999H207.587ZM243.867 72.768C238.619 72.768 233.883 71.648 229.659 69.408C225.499 67.168 222.203 63.968 219.771 59.808C217.403 55.648 216.219 50.784 216.219 45.216C216.219 39.712 217.435 34.88 219.867 30.72C222.299 26.496 225.627 23.264 229.851 21.024C234.075 18.784 238.811 17.664 244.059 17.664C249.307 17.664 254.043 18.784 258.267 21.024C262.491 23.264 265.819 26.496 268.251 30.72C270.683 34.88 271.899 39.712 271.899 45.216C271.899 50.72 270.651 55.584 268.155 59.808C265.723 63.968 262.363 67.168 258.075 69.408C253.851 71.648 249.115 72.768 243.867 72.768ZM243.867 58.56C247.003 58.56 249.659 57.408 251.835 55.104C254.075 52.8 255.195 49.504 255.195 45.216C255.195 40.928 254.107 37.632 251.931 35.328C249.819 33.024 247.195 31.872 244.059 31.872C240.859 31.872 238.203 33.024 236.091 35.328C233.979 37.568 232.923 40.864 232.923 45.216C232.923 49.504 233.947 52.8 235.995 55.104C238.107 57.408 240.731 58.56 243.867 58.56ZM342.904 60.096H317.752L313.72 72H296.536L320.92 4.608H339.928L364.312 72H346.936L342.904 60.096ZM338.68 47.424L330.328 22.752L322.072 47.424H338.68ZM388.149 0.959999V72H371.733V0.959999H388.149ZM396.782 45.12C396.782 39.616 397.806 34.784 399.854 30.624C401.966 26.464 404.814 23.264 408.398 21.024C411.982 18.784 415.982 17.664 420.398 17.664C424.174 17.664 427.47 18.432 430.286 19.968C433.166 21.504 435.374 23.52 436.91 26.016V18.432H453.326V72H436.91V64.416C435.31 66.912 433.07 68.928 430.19 70.464C427.374 72 424.078 72.768 420.302 72.768C415.95 72.768 411.982 71.648 408.398 69.408C404.814 67.104 401.966 63.872 399.854 59.712C397.806 55.488 396.782 50.624 396.782 45.12ZM436.91 45.216C436.91 41.12 435.758 37.888 433.454 35.52C431.214 33.152 428.462 31.968 425.198 31.968C421.934 31.968 419.15 33.152 416.846 35.52C414.606 37.824 413.486 41.024 413.486 45.12C413.486 49.216 414.606 52.48 416.846 54.912C419.15 57.28 421.934 58.464 425.198 58.464C428.462 58.464 431.214 57.28 433.454 54.912C435.758 52.544 436.91 49.312 436.91 45.216ZM497.842 17.856C504.114 17.856 509.106 19.904 512.818 24C516.594 28.032 518.482 33.6 518.482 40.704V72H502.162V42.912C502.162 39.328 501.234 36.544 499.378 34.56C497.522 32.576 495.026 31.584 491.89 31.584C488.754 31.584 486.258 32.576 484.402 34.56C482.546 36.544 481.618 39.328 481.618 42.912V72H465.202V18.432H481.618V25.536C483.282 23.168 485.522 21.312 488.338 19.968C491.154 18.56 494.322 17.856 497.842 17.856Z" fill="black"/>
</svg>
